<svg width="250" height="170" viewBox="0 0 250 170" fill="none" xmlns="http://www.w3.org/2000/svg">
    <rect width="250" height="170" rx="8" fill="#FDFDFD"/>

    <path d="M26 42H95.3944C98.4734 42 101.294 43.5313 102.921 46.0396L112.079 59.9604C113.706 62.4687 116.527 64 119.606 64H224V118H26V42Z" fill="#E0E0E0"/>

    <rect x="40" y="75" width="60" height="5" rx="2.5" fill="#CCCCCC"/>
    <rect x="40" y="85" width="80" height="5" rx="2.5" fill="#CCCCCC"/>
    <rect x="40" y="95" width="50" height="5" rx="2.5" fill="#CCCCCC"/>

    <path d="M126 72H165.394C168.473 72 171.294 73.5313 172.921 76.0396L182.079 89.9604C183.706 92.4687 186.527 94 189.606 94H224V148H126V72Z" fill="#cc0000"/>

    <rect x="134" y="78" width="25" height="4" rx="2" fill="rgba(0, 0, 0, 0.15)"/>

    <text x="30" y="145" font-family="'Segoe UI', sans-serif" font-size="20" font-weight="bold" fill="#cc0000">
        dir-db
    </text>
    <text x="98" y="145" font-family="'Segoe UI', sans-serif" font-size="20" fill="#333333">
        system
    </text>
</svg>